<?xml version="1.0" encoding="UTF-8"?>
<svg id="_图层_2" data-name="图层 2" xmlns="http://www.w3.org/2000/svg" viewBox="0 0 46.34 85.76">
  <defs>
    <style>
      .cls-1 {
        fill: #318be4;
      }

      .cls-2 {
        fill: #fff;
      }
    </style>
  </defs>
  <g id="_图层_1-2" data-name="图层 1">
    <path id="_蓝牙图标" data-name="蓝牙图标" class="cls-2" d="M22.83,1.15l20.68,17.26c2.84,1.61,3.9,5.63,1.32,7.97l-19.09,15.94c-.36.34-.3.72-.02.94l18.21,15.09c3.66,2.72,2.83,6.82-.35,8.69l-22.21,18.63c-2.19.45-4.19-.84-4.98-3.63l.02-30.99c-.08-.37-.35-.48-.87-.29l-12.75,10.62c-1.2,1.37-2.75.32-2.76-1.42l-.02-4.1c.02-1.31.31-1.8,1.12-2.36l12.38-10.3c.26-.27.27-.54.01-.83L1.28,32.13c-.75-.35-1.13-1-1.26-1.86v-4.91c.24-1.67,1.07-2.14,2.56-1.31l12.76,10.6,1.08-.44V3.73C17.09,0,20.4-1.07,22.83,1.15Z"/>
    <path class="cls-1" d="M23.81,50.83l13.31,11.13c.55.36.63.8,0,1.35l-13.38,11.08c-.4.33-.71.36-.92,0v-23.1c-.02-.65.21-.95.99-.46Z"/>
    <path class="cls-1" d="M23.7,11.14l13.39,11.12c.55.5.7.96,0,1.35l-13.62,11.37c-.38.28-.73-.12-.73-.7V11.52c.04-.62.42-.74.96-.38Z"/>
  </g>
</svg>