<?xml version="1.0" standalone="no"?><!DOCTYPE svg PUBLIC "-//W3C//DTD SVG 1.1//EN" "http://www.w3.org/Graphics/SVG/1.1/DTD/svg11.dtd"><svg t="1743127195162" class="icon" viewBox="0 0 1024 1024" version="1.1" xmlns="http://www.w3.org/2000/svg" p-id="9366" xmlns:xlink="http://www.w3.org/1999/xlink" width="200" height="200"><path d="M743.936 303.488h-39.104a16.192 16.192 0 0 0-16.064 16.32c0 9.088 7.168 16.384 16 16.384h39.168a16.192 16.192 0 0 0 16.064-16.384 16.192 16.192 0 0 0-16.064-16.32z m0 50.176h-39.104a16.192 16.192 0 0 0-16.064 16.384c0 9.024 7.168 16.384 16 16.384h39.168a16.192 16.192 0 0 0 16.064-16.384 16.192 16.192 0 0 0-16.064-16.384z m0 50.24h-39.104a16.192 16.192 0 0 0-16.064 16.384c0 9.024 7.168 16.384 16 16.384h39.168a16.192 16.192 0 0 0 16.064-16.384 16.192 16.192 0 0 0-16.064-16.384zM506.496 64c42.752 0 83.328 13.12 114.24 36.928 33.152 25.6 52.096 61.824 52.096 99.456v332.928a248.512 248.512 0 0 1 76.16 179.712c0 65.92-25.28 128-71.04 174.656A238.72 238.72 0 0 1 506.432 960a238.72 238.72 0 0 1-171.392-72.32 247.68 247.68 0 0 1-71.04-174.72c0-68.416 27.52-132.992 76.096-179.648V200.384c0-37.632 18.944-73.92 52.096-99.456C423.04 77.12 463.68 64 506.496 64z m0 66.432c-54.912 0-101.248 32-101.248 69.952v363.52l-11.776 9.92a181.504 181.504 0 0 0-64.256 139.2c0 99.584 79.488 180.544 177.28 180.544 97.728 0 177.28-80.96 177.28-180.544 0-54.016-23.488-104.704-64.32-139.2l-11.776-9.92V200.32c0-37.952-46.336-69.952-101.184-69.952z m0 122.816c25.28 0 46.208 14.464 49.536 33.28l0.448 5.248v305.92a126.08 126.08 0 0 1 73.664 115.328c0 69.568-55.36 126.016-123.648 126.016-68.352 0-123.712-56.448-123.712-126.08 0-48 26.368-89.728 65.152-110.976l8.512-4.288V291.84c0-21.248 22.4-38.528 50.048-38.528z m237.44 200.96c8.896 0 16.064 7.296 16.064 16.32a16.192 16.192 0 0 1-16.064 16.384h-39.104a16.192 16.192 0 0 1-16.064-16.384c0-9.024 7.168-16.384 16-16.384z m0-200.96c8.896 0 16.064 7.296 16.064 16.32a16.32 16.32 0 0 1-12.352 16l-3.712 0.384h-39.104a16.192 16.192 0 0 1-16.064-16.384c0-7.68 5.248-14.208 12.352-15.872l3.712-0.448h39.104z m0-50.24c8.896 0 16.064 7.296 16.064 16.384a16.192 16.192 0 0 1-16.064 16.32h-39.104a16.192 16.192 0 0 1-16.064-16.32c0-9.088 7.168-16.384 16-16.384z" p-id="9367" fill="#318be4"></path></svg>