<?xml version="1.0" encoding="UTF-8"?>
<svg id="_图层_2" data-name="图层 2" xmlns="http://www.w3.org/2000/svg" viewBox="0 0 149.26 149.26">
  <defs>
    <style>
      .cls-1 {
        fill: #318be4;
      }

      .cls-2 {
        fill: #fff;
      }
    </style>
  </defs>
  <g id="_图层_1-2" data-name="图层 1">
    <g>
      <circle class="cls-1" cx="74.63" cy="74.63" r="74.63"/>
      <circle class="cls-2" cx="74.38" cy="74.6" r="64.73"/>
      <polygon class="cls-1" points="26.74 48.73 37.5 48.73 37.5 41.36 54.17 41.36 54.17 48.73 95.36 48.73 95.36 41.36 111.89 41.36 111.89 48.73 122.35 48.73 122.35 107.37 26.74 107.37 26.74 48.73"/>
      <rect class="cls-2" x="33.53" y="55.67" width="81.78" height="44.95"/>
      <polyline class="cls-1" points="101.43 69.97 95.36 69.97 95.36 65.46 101.41 65.46 101.41 59.37 105.87 59.37 105.87 65.46 111.89 65.46 111.89 69.88 105.82 69.88 105.87 75.97 101.6 75.97"/>
      <rect class="cls-1" x="37.5" y="65.39" width="16.67" height="4.58"/>
    </g>
  </g>
</svg>