<?xml version="1.0" encoding="UTF-8"?>
<svg id="_图层_2" data-name="图层 2" xmlns="http://www.w3.org/2000/svg" viewBox="0 0 103.18 113.37">
  <defs>
    <style>
      .cls-1 {
        fill: #fff;
      }

      .cls-2 {
        fill: #7a7e7d;
      }
    </style>
  </defs>
  <g id="_图层_1-2" data-name="图层 1">
    <g>
      <path class="cls-2" d="M51.33,68.22c-25.51.94-37.68,22.02-38.16,40.71-4.52,5.99-8.88,5.31-13.13,0-.8-21.96,10.11-39.79,30.08-48.94-8.58-5.75-12.77-14.61-13.31-26.08C19.54,11.36,31.79.88,51.33,0c19.89.99,34.94,14.6,34.48,33.9.46,16.39-9.9,26.48-11.04,26.5,19.97,9.65,28.15,26.62,28.41,48.52-4.01,5.95-8.91,5.91-13.53,0,1.67-26.32-18.54-40.17-38.32-40.71"/>
      <circle class="cls-1" cx="51.1" cy="34.54" r="25.62"/>
    </g>
  </g>
</svg>