<?xml version="1.0" encoding="UTF-8"?>
<svg id="_图层_2" data-name="图层 2" xmlns="http://www.w3.org/2000/svg" viewBox="0 0 103.84 101.03">
  <defs>
    <style>
      .cls-1 {
        fill: #fff;
      }

      .cls-2 {
        fill: #7a7e7d;
      }
    </style>
  </defs>
  <g id="_图层_1-2" data-name="图层 1">
    <g>
      <polygon class="cls-2" points="25 16.77 25 3.61 39.84 0 47.06 7.74 58.94 7.87 67.58 0 79.84 4 79.84 18.84 86.16 23.87 97.77 23.87 103.84 37.03 94.94 44.9 94.94 57.16 103.84 65.94 99.06 78.84 83.97 78.84 80.1 83.1 80.23 94.97 66.42 101.03 58.81 93.29 46.42 93.03 38.42 101.03 27.19 96.77 26.81 85.68 20.23 78.71 6.81 78.58 .87 66.32 9.16 58.97 9.16 45.9 0 37 6.87 24.42 17.52 24.13 25 16.77"/>
      <circle class="cls-1" cx="51.93" cy="50.82" r="27"/>
    </g>
  </g>
</svg>