<?xml version="1.0" standalone="no"?><!DOCTYPE svg PUBLIC "-//W3C//DTD SVG 1.1//EN" "http://www.w3.org/Graphics/SVG/1.1/DTD/svg11.dtd"><svg t="1743126710285" class="icon" viewBox="0 0 1024 1024" version="1.1" xmlns="http://www.w3.org/2000/svg" p-id="4775" xmlns:xlink="http://www.w3.org/1999/xlink" width="200" height="200"><path d="M512 1024C229.6832 1024 0 794.3168 0 512S229.6832 0 512 0s512 229.6832 512 512-229.6832 512-512 512z m0-953.1392C268.6976 70.8608 70.8608 268.6976 70.8608 512S268.6976 953.1392 512 953.1392c243.3024 0 441.1392-197.9392 441.1392-441.1392S755.3024 70.8608 512 70.8608z" fill="#318be4" p-id="4776"></path><path d="M859.8528 526.0288c-11.776 0-21.2992-9.5232-21.2992-21.2992 0-179.3024-145.8176-325.12-325.12-325.12S188.3136 325.5296 188.3136 504.832c0 11.776-9.5232 21.2992-21.2992 21.2992s-21.2992-9.5232-21.2992-21.2992c0-202.752 164.9664-367.616 367.616-367.616s367.616 164.9664 367.616 367.616c0.1024 11.776-9.3184 21.1968-21.0944 21.1968z" fill="#318be4" p-id="4777"></path><path d="M480.9728 574.0544c-12.288-12.288-12.288-32.256 0-44.544l190.464-190.464c12.288-12.288 32.256-12.288 44.544 0 12.288 12.288 12.288 32.256 0 44.544l-190.464 190.464c-12.288 12.288-32.256 12.288-44.544 0z" fill="#318be4" p-id="4778"></path><path d="M512 540.3648m-70.8608 0a70.8608 70.8608 0 1 0 141.7216 0 70.8608 70.8608 0 1 0-141.7216 0Z" fill="#318be4" p-id="4779"></path></svg>